<svg width="991" height="568" viewBox="0 0 991 568" fill="none" xmlns="http://www.w3.org/2000/svg">
<path d="M965.753 219.935L955.247 247.564L962.696 250.556L973.202 222.928L965.753 219.935Z" fill="#367CFF"/>
<path d="M309.48 152.187L303.523 157.671L322.776 179.768L328.733 174.284L309.48 152.187Z" fill="#0CBC8B"/>
<path d="M397.749 251.089L374.651 268.873L379.446 275.453L402.544 257.67L397.749 251.089Z" fill="#367CFF"/>
<path d="M664.895 47.0145L659.414 53.001L680.432 73.3302L685.912 67.3437L664.895 47.0145Z" fill="#367CFF"/>
<path d="M512.073 53.625L497.689 79.3429L504.622 83.4398L519.006 57.722L512.073 53.625Z" fill="#0CBC8B"/>
<path d="M720.937 273.554L714.174 277.941L729.575 303.028L736.338 298.641L720.937 273.554Z" fill="#0CBC8B"/>
<path d="M407.338 395.713L400.184 399.387L413.082 425.923L420.236 422.25L407.338 395.713Z" fill="#0CBC8B"/>
<path d="M302.672 325.891L294.385 354.305L302.045 356.665L310.332 328.251L302.672 325.891Z" fill="#367CFF"/>
<path d="M803.29 414.433L779.322 430.955L783.776 437.782L807.744 421.261L803.29 414.433Z" fill="#367CFF"/>
<path d="M806.88 -2.03495e-05L792.497 25.7172L799.43 29.814L813.813 4.0968L806.88 -2.03495e-05Z" fill="#0CBC8B"/>
<path d="M7.44835 210.395L0 213.387L10.5059 241.016L17.9543 238.023L7.44835 210.395Z" fill="#0CBC8B"/>
<path d="M780.636 176.263L775.841 182.843L798.939 200.627L803.734 194.047L780.636 176.263Z" fill="#0CBC8B"/>
<path d="M131.833 55.059L110.815 75.3882L116.296 81.3747L137.313 61.0455L131.833 55.059Z" fill="#367CFF"/>
<path d="M364.624 30.8502L357.691 34.9471L372.074 60.665L379.007 56.5681L364.624 30.8502Z" fill="#367CFF"/>
<path d="M81.8383 353.751L66.4373 378.837L73.2003 383.224L88.6014 358.138L81.8383 353.751Z" fill="#0CBC8B"/>
<path d="M13.6222 422.471L9.16779 429.302L33.1493 445.825L37.6037 438.994L13.6222 422.471Z" fill="#367CFF"/>
<path d="M938.843 94.8734L931.91 98.9702L946.293 124.687L953.226 120.591L938.843 94.8734Z" fill="#367CFF"/>
<path d="M638.378 164.959L619.125 187.056L625.082 192.54L644.335 170.443L638.378 164.959Z" fill="#367CFF"/>
<path d="M469.357 414.029L456.459 440.566L463.613 444.24L476.511 417.703L469.357 414.029Z" fill="#0CBC8B"/>
<path d="M574.026 344.209L566.367 346.569L574.654 374.984L582.313 372.623L574.026 344.209Z" fill="#367CFF"/>
<path d="M576.605 360.424L549.348 339.127C548.749 338.659 548.062 338.325 547.33 338.145C546.598 337.965 545.838 337.944 545.098 338.082C544.358 338.221 543.654 338.516 543.031 338.95C542.408 339.383 541.88 339.945 541.48 340.6C540.778 341.833 540.547 343.29 540.83 344.688C541.114 346.086 541.892 347.326 543.014 348.168L548.859 352.734L524.068 347.046C521.323 346.364 517.529 347.333 516.988 350.549C516.701 351.773 516.826 353.06 517.343 354.201C517.859 355.343 518.736 356.27 519.832 356.833C519.819 356.858 519.809 356.884 519.802 356.911C519.8 356.933 519.8 356.954 519.802 356.975L515.567 355.924C514.783 355.73 513.966 355.718 513.177 355.889C512.387 356.06 511.645 356.41 511.004 356.914C510.363 357.417 509.839 358.061 509.471 358.799C509.103 359.537 508.899 360.351 508.876 361.18C508.864 362.486 509.289 363.756 510.079 364.779C510.87 365.802 511.978 366.515 513.218 366.798L515.018 367.245C515.029 367.305 515.051 367.362 515.082 367.414C513.796 367.402 512.548 367.861 511.562 368.708C510.575 369.555 509.913 370.735 509.695 372.038C509.497 373.47 509.832 374.926 510.632 376.115C511.433 377.305 512.64 378.141 514.014 378.456L518.49 379.567C518.417 379.598 518.351 379.645 518.299 379.707C518.247 379.768 518.209 379.842 518.19 379.921C518.172 380.016 518.182 380.115 518.217 380.205C517.069 380.522 516.054 381.217 515.328 382.184C514.602 383.151 514.205 384.336 514.199 385.558C514.217 386.841 514.657 388.08 515.445 389.074C516.234 390.069 517.326 390.761 518.545 391.038L556.306 400.415C561.588 401.726 567.132 401.386 572.225 399.438C577.319 397.491 581.73 394.024 584.895 389.483C587.624 385.567 588.759 380.712 588.06 375.949C587.362 371.186 584.883 366.891 581.153 363.977L576.605 360.424Z" fill="#E98862"/>
<g opacity="0.2">
<path d="M544.344 362.59C544.312 362.72 544.232 362.832 544.121 362.903C544.01 362.973 543.877 362.996 543.749 362.967L520.178 357.521C520.114 357.506 520.053 357.478 519.999 357.439C519.946 357.4 519.9 357.351 519.865 357.294C519.83 357.237 519.806 357.173 519.795 357.107C519.784 357.04 519.785 356.972 519.8 356.906C519.814 356.84 519.841 356.778 519.879 356.723C519.917 356.668 519.965 356.621 520.02 356.585C520.076 356.549 520.138 356.524 520.203 356.513C520.267 356.501 520.334 356.503 520.398 356.518L543.968 361.964C544.032 361.979 544.093 362.006 544.147 362.045C544.201 362.084 544.247 362.134 544.282 362.191C544.317 362.249 544.341 362.312 544.352 362.379C544.363 362.446 544.361 362.514 544.346 362.58L544.344 362.59Z" fill="#0C0C0C"/>
</g>
<g opacity="0.2">
<path d="M542.296 373.342C542.264 373.473 542.183 373.586 542.071 373.657C541.959 373.727 541.824 373.75 541.696 373.719L515.39 367.646C515.326 367.631 515.265 367.603 515.211 367.564C515.158 367.525 515.112 367.476 515.077 367.418C515.042 367.361 515.018 367.297 515.007 367.23C514.996 367.164 514.998 367.095 515.013 367.029C515.046 366.898 515.126 366.785 515.238 366.713C515.349 366.641 515.483 366.615 515.612 366.641L541.918 372.714C541.982 372.728 542.043 372.756 542.097 372.795C542.151 372.834 542.196 372.884 542.231 372.941C542.267 372.998 542.29 373.062 542.301 373.129C542.312 373.196 542.31 373.264 542.296 373.33V373.342Z" fill="#0C0C0C"/>
</g>
<g opacity="0.2">
<path d="M540.143 385C540.112 385.13 540.032 385.242 539.921 385.313C539.81 385.383 539.676 385.406 539.549 385.377L518.565 380.533C518.436 380.503 518.323 380.422 518.252 380.307C518.181 380.192 518.158 380.052 518.187 379.919C518.216 379.786 518.295 379.671 518.407 379.598C518.519 379.525 518.655 379.5 518.784 379.53L539.768 384.374C539.832 384.389 539.893 384.416 539.947 384.455C540.001 384.494 540.047 384.544 540.082 384.601C540.117 384.659 540.141 384.722 540.152 384.789C540.163 384.856 540.161 384.925 540.146 384.991L540.143 385Z" fill="#0C0C0C"/>
</g>
<path d="M447.199 213.936L462.418 182.41C462.752 181.717 463.223 181.104 463.801 180.609C464.378 180.113 465.05 179.747 465.773 179.533C466.496 179.319 467.254 179.263 468 179.367C468.745 179.471 469.461 179.733 470.103 180.137C471.265 180.921 472.103 182.12 472.454 183.502C472.805 184.884 472.644 186.351 472.002 187.619L468.738 194.379L488.49 177.966C490.655 176.101 494.473 175.237 496.347 177.872C497.133 178.837 497.577 180.048 497.608 181.306C497.638 182.564 497.253 183.796 496.514 184.8C496.536 184.817 496.557 184.836 496.575 184.857C496.586 184.875 496.596 184.894 496.604 184.913L499.944 182.036C500.563 181.504 501.289 181.12 502.071 180.913C502.852 180.706 503.668 180.681 504.46 180.839C505.252 180.998 506 181.336 506.648 181.829C507.297 182.322 507.831 182.958 508.21 183.689C508.785 184.854 508.953 186.187 508.687 187.464C508.421 188.741 507.736 189.886 506.748 190.706L505.326 191.93C505.342 191.989 505.347 192.05 505.341 192.11C506.488 191.512 507.804 191.353 509.054 191.662C510.304 191.97 511.407 192.725 512.165 193.792C512.961 194.985 513.289 196.443 513.086 197.874C512.882 199.306 512.16 200.605 511.065 201.514L507.535 204.552C507.615 204.545 507.695 204.558 507.768 204.589C507.842 204.62 507.908 204.669 507.959 204.731C508.017 204.809 508.051 204.902 508.059 204.999C509.224 204.758 510.434 204.917 511.502 205.452C512.571 205.987 513.438 206.868 513.972 207.96C514.51 209.118 514.652 210.428 514.375 211.679C514.098 212.93 513.418 214.049 512.446 214.853L482.666 240.494C478.5 244.082 473.387 246.308 467.982 246.889C462.577 247.469 457.127 246.377 452.329 243.753C448.193 241.49 445.079 237.659 443.647 233.073C442.215 228.488 442.578 223.509 444.66 219.195L447.199 213.936Z" fill="#E98862"/>
<g opacity="0.2">
<path d="M477.039 201.145C477.124 201.249 477.245 201.314 477.376 201.326C477.507 201.339 477.637 201.298 477.739 201.212L496.506 185.575C496.609 185.489 496.675 185.365 496.689 185.229C496.702 185.094 496.663 184.958 496.58 184.852C496.496 184.746 496.375 184.679 496.243 184.665C496.111 184.65 495.98 184.691 495.877 184.776L477.109 200.413C477.007 200.499 476.942 200.623 476.928 200.757C476.914 200.892 476.953 201.027 477.035 201.133L477.039 201.145Z" fill="#0C0C0C"/>
</g>
<g opacity="0.2">
<path d="M483.52 209.844C483.605 209.947 483.726 210.012 483.857 210.025C483.988 210.037 484.118 209.996 484.22 209.91L505.164 192.459C505.266 192.373 505.331 192.25 505.345 192.115C505.358 191.98 505.32 191.846 505.237 191.74C505.151 191.639 505.032 191.575 504.902 191.561C504.772 191.547 504.642 191.583 504.537 191.664L483.586 209.111C483.484 209.197 483.419 209.321 483.405 209.455C483.391 209.59 483.43 209.725 483.512 209.831L483.52 209.844Z" fill="#0C0C0C"/>
</g>
<g opacity="0.2">
<path d="M490.486 219.306C490.571 219.409 490.692 219.474 490.823 219.487C490.954 219.499 491.085 219.458 491.186 219.372L507.893 205.452C507.996 205.367 508.062 205.242 508.076 205.107C508.089 204.971 508.05 204.835 507.967 204.73C507.883 204.624 507.762 204.556 507.63 204.542C507.498 204.528 507.366 204.568 507.263 204.654L490.552 218.574C490.45 218.66 490.385 218.783 490.371 218.918C490.358 219.053 490.396 219.188 490.479 219.293L490.486 219.306Z" fill="#0C0C0C"/>
</g>
<path d="M105.662 186.905C105.662 186.905 103.516 220.007 96.2718 232.014C75.4133 266.588 69.3705 305.482 90.258 325.804C111.145 346.125 244.372 346.407 254.466 299.669C262.963 260.319 244.728 256.088 240.291 223.631C238.284 208.944 232.76 178.146 232.76 178.146" fill="#0A0A0A"/>
<path d="M219.985 292.816C219.755 292.785 217.203 336.312 168.01 332.518C133.954 329.894 121.812 292.752 121.032 292.752C124.704 291.95 130.886 290.784 132.517 289.889C137.88 286.927 144.512 283.845 146.244 273.14C147.243 266.975 145.549 235.407 146.07 229.162L198.345 241.159C197.614 254.343 192.502 284.906 210.421 290.315C213.402 291.212 216.613 292.035 219.985 292.816Z" fill="#E98862"/>
<path opacity="0.5" d="M199.078 277.826C198.259 275.114 197.732 272.318 197.505 269.487C196.931 263.028 197.046 256.524 197.847 250.09C187.223 248.616 177.214 244.108 168.958 237.079C167.987 240.763 162.648 256.865 164.126 260.367C166.918 266.987 180.047 277.826 199.078 277.826Z" fill="#0C0C0C"/>
<path d="M192.318 264.266C171.708 266.321 145.041 257.842 139.517 229.629L134.533 204.173C129.009 175.961 138.946 150.109 164.788 144.762C190.631 139.419 214.424 158.29 219.948 186.503L222.155 197.773C224.275 208.598 229.09 260.608 192.318 264.266Z" fill="#E98862"/>
<path opacity="0.1" d="M179.217 227.296C182.609 226.88 185.117 224.47 184.821 221.913C184.524 219.356 181.534 217.62 178.142 218.036C174.75 218.452 172.241 220.862 172.538 223.419C172.835 225.976 175.825 227.712 179.217 227.296Z" fill="#0C0C0C"/>
<path opacity="0.1" d="M215.056 217.073C215.356 219.626 218.35 221.36 221.741 220.949C222.328 220.876 222.905 220.742 223.464 220.547C223.622 217.502 223.631 214.574 223.545 211.862C222.603 211.62 221.625 211.561 220.662 211.688C217.27 212.099 214.762 214.509 215.056 217.073Z" fill="#0C0C0C"/>
<path opacity="0.5" d="M200.069 224.965C200.086 224.963 200.103 224.961 200.119 224.957C201.167 224.733 202.201 224.449 203.218 224.107C204.736 223.585 206.717 222.728 206.445 221.317C206.131 219.71 198.448 203.252 197.576 201.383C197.541 201.299 197.489 201.223 197.424 201.16C197.359 201.096 197.282 201.047 197.198 201.015C197.114 200.983 197.025 200.969 196.935 200.973C196.846 200.977 196.758 201 196.678 201.039C196.597 201.079 196.525 201.135 196.466 201.204C196.407 201.274 196.362 201.354 196.334 201.442C196.306 201.529 196.295 201.621 196.302 201.713C196.31 201.805 196.335 201.894 196.377 201.975C199.652 208.984 204.929 220.508 205.141 221.59C204.975 222.094 202.457 223.08 199.859 223.618C199.773 223.632 199.691 223.664 199.616 223.711C199.542 223.758 199.477 223.82 199.426 223.893C199.375 223.965 199.339 224.048 199.319 224.135C199.298 224.222 199.295 224.313 199.309 224.402C199.323 224.49 199.354 224.575 199.4 224.651C199.445 224.728 199.505 224.794 199.576 224.847C199.647 224.899 199.727 224.937 199.812 224.958C199.897 224.978 199.985 224.982 200.071 224.967L200.069 224.965Z" fill="#0C0C0C"/>
<path d="M113.913 213.313L137.081 208.661C154.582 201.139 159.547 169.788 159.547 169.788C159.547 169.788 181.145 190.931 232.764 178.146C232.764 178.146 221.552 104.075 145.331 126.564C120.755 133.813 103.346 159.563 105.935 193.669C107.75 217.563 113.913 213.313 113.913 213.313Z" fill="#0A0A0A"/>
<path d="M142.805 237.893C134.952 239.517 126.895 232.198 125.311 224.124C123.728 216.049 129.226 210.283 137.079 208.657L142.185 213.23L149.556 236.494L142.805 237.893Z" fill="#E98862"/>
<path d="M203.143 188.259C205.108 186.831 207.406 185.963 209.803 185.743C211.007 185.625 212.222 185.694 213.407 185.949C214.601 186.199 215.76 186.602 216.856 187.149L216.89 187.165C217.012 187.221 217.149 187.225 217.274 187.177C217.398 187.129 217.5 187.033 217.556 186.91C217.613 186.786 217.62 186.645 217.576 186.516C217.533 186.387 217.442 186.28 217.323 186.219C216.161 185.589 214.926 185.111 213.648 184.797C212.361 184.475 211.035 184.355 209.713 184.438C207.035 184.59 204.446 185.478 202.216 187.007C202.132 187.065 202.061 187.139 202.006 187.226C201.951 187.312 201.913 187.408 201.894 187.51C201.875 187.611 201.876 187.716 201.896 187.817C201.916 187.918 201.956 188.014 202.013 188.099C202.069 188.184 202.141 188.257 202.225 188.314C202.31 188.371 202.404 188.41 202.502 188.429C202.601 188.448 202.702 188.447 202.801 188.426C202.899 188.404 202.992 188.363 203.075 188.305L203.093 188.293L203.143 188.259Z" fill="#0C0C0C"/>
<path d="M181.98 191.265C179.349 190.727 176.626 190.925 174.095 191.838C172.843 192.281 171.664 192.914 170.596 193.717C169.532 194.51 168.569 195.437 167.731 196.477C167.646 196.58 167.604 196.713 167.613 196.848C167.621 196.983 167.68 197.109 167.778 197.2C167.875 197.291 168.003 197.34 168.134 197.336C168.265 197.333 168.39 197.277 168.483 197.181L168.51 197.152C169.319 196.215 170.239 195.387 171.249 194.686C172.248 193.985 173.345 193.444 174.502 193.08C176.798 192.338 179.244 192.236 181.591 192.782L181.649 192.797C181.846 192.846 182.054 192.813 182.227 192.704C182.4 192.596 182.524 192.421 182.572 192.219C182.619 192.016 182.587 191.803 182.481 191.625C182.376 191.447 182.206 191.319 182.009 191.27L181.98 191.265Z" fill="#0C0C0C"/>
<path d="M137.097 208.269C152.67 202.309 157.839 191.255 159.43 183.029C160.46 177.542 160.364 171.895 159.147 166.449L158.665 166.586C159.864 171.961 159.956 177.534 158.937 182.947C157.366 191.039 152.272 201.917 136.922 207.789L137.097 208.269Z" fill="#0C0C0C"/>
<path d="M260.05 297.994L407.923 348.802L364.508 368.639L438.242 213.153L498.504 242.02L430.091 400.054C426.631 408.046 420.489 414.491 412.788 418.212C405.086 421.933 396.339 422.681 388.145 420.32L386.675 419.892L236.563 376.571L260.05 297.994Z" fill="#367CFF"/>
<path d="M167.092 321.636C133.012 319.985 131.578 290.252 131.578 290.252C131.578 290.252 114.692 291.374 103.467 292.935C85.0898 295.491 72.9662 301.896 63.3177 311.813C54.3429 321.039 48.8789 331.021 54.6608 394.746C58.8473 440.888 55.9014 542.381 55.9014 542.381H263.576C263.576 542.381 278.078 395.752 279.798 374.985C283.078 335.333 292.348 326.58 273.567 306.155C259.947 291.342 224.784 290.252 210.631 290.255C210.401 290.255 213.503 323.886 167.092 321.636Z" fill="#367CFF"/>
<path d="M206.978 230.526C200.281 234.026 192.641 235.133 185.265 233.671C185.009 233.622 184.746 233.649 184.504 233.748C184.263 233.847 184.054 234.015 183.902 234.231C183.75 234.448 183.661 234.704 183.645 234.971C183.63 235.237 183.688 235.503 183.814 235.737C186.013 239.719 191.23 246.526 200.178 243.752C205.956 241.96 208.14 235.85 208.95 232.07C209.005 231.808 208.987 231.536 208.897 231.285C208.807 231.034 208.649 230.814 208.442 230.652C208.235 230.49 207.987 230.392 207.728 230.37C207.468 230.347 207.208 230.402 206.978 230.526Z" fill="white"/>
<path d="M207.397 199.914C209.184 199.914 210.633 198.425 210.633 196.588C210.633 194.751 209.184 193.262 207.397 193.262C205.61 193.262 204.161 194.751 204.161 196.588C204.161 198.425 205.61 199.914 207.397 199.914Z" fill="#0C0C0C"/>
<path d="M176.304 205.509C178.091 205.509 179.54 204.02 179.54 202.183C179.54 200.346 178.091 198.857 176.304 198.857C174.517 198.857 173.068 200.346 173.068 202.183C173.068 204.02 174.517 205.509 176.304 205.509Z" fill="#0C0C0C"/>
<path d="M279.336 389.432C279.315 389.433 279.294 389.433 279.273 389.432C279.141 389.415 279.022 389.345 278.941 389.238C278.859 389.13 278.823 388.994 278.839 388.859L282.055 362.063C282.062 361.996 282.082 361.931 282.114 361.872C282.146 361.812 282.189 361.76 282.241 361.719C282.293 361.677 282.352 361.647 282.416 361.629C282.48 361.612 282.546 361.608 282.612 361.617C282.677 361.626 282.74 361.647 282.797 361.68C282.854 361.714 282.904 361.758 282.945 361.811C282.985 361.865 283.015 361.926 283.032 361.991C283.05 362.056 283.055 362.124 283.046 362.191L279.831 388.986C279.815 389.109 279.756 389.222 279.665 389.304C279.574 389.386 279.457 389.431 279.336 389.432Z" fill="#0C0C0C"/>
<path d="M805.01 182.67C805.01 182.67 792.622 168.37 794.059 141.589C795.171 120.854 810.732 137.623 810.732 137.623C810.732 137.623 811.674 122.7 821.695 126.253C831.715 129.807 834.529 146.262 834.529 146.262" fill="#0C0C0C"/>
<path d="M874.631 138.867C874.631 138.867 924.667 154.978 892.374 222.406L887.79 221.789L878.483 220.541" fill="#0C0C0C"/>
<path d="M803.451 292.707C803.681 292.676 806.224 336.059 855.255 332.277C889.197 329.663 901.3 292.647 902.078 292.647C898.418 291.846 892.255 290.684 890.63 289.792C885.285 286.84 878.672 283.769 876.949 273.1C875.956 266.95 877.641 235.492 877.123 229.27L825.02 241.223C825.748 254.363 830.843 284.825 812.984 290.216C810.013 291.108 806.809 291.928 803.451 292.707Z" fill="#E98862"/>
<path opacity="0.52" d="M824.29 277.768C825.106 275.064 825.631 272.277 825.856 269.455C826.43 263.017 826.316 256.534 825.516 250.122C836.106 248.653 846.083 244.161 854.313 237.155C855.28 240.827 860.601 256.875 859.127 260.366C856.343 266.963 843.257 277.768 824.29 277.768Z" fill="#0C0C0C"/>
<path d="M830.538 263.076C851.056 265.348 877.721 257.199 883.525 229.143L888.761 203.828C894.558 175.776 884.931 149.896 859.231 144.28C833.533 138.665 809.62 157.212 803.818 185.268L801.5 196.475C800.77 200.337 800.296 204.246 800.083 208.174C799.444 218.552 798.512 234.34 803.171 246.103C807.569 257.209 817.428 261.624 830.538 263.076Z" fill="#E98862"/>
<path d="M814.239 198.443C816.026 198.443 817.474 196.953 817.474 195.117C817.474 193.28 816.026 191.79 814.239 191.79C812.451 191.79 811.003 193.28 811.003 195.117C811.003 196.953 812.451 198.443 814.239 198.443Z" fill="#0C0C0C"/>
<path d="M844.971 201.769C846.759 201.769 848.207 200.28 848.207 198.443C848.207 196.606 846.759 195.116 844.971 195.116C843.184 195.116 841.736 196.606 841.736 198.443C841.736 200.28 843.184 201.769 844.971 201.769Z" fill="#0C0C0C"/>
<path d="M880.161 237.342C887.971 239.048 896.078 231.843 897.738 223.815C899.399 215.787 893.983 209.978 886.173 208.271L881.036 212.77L873.446 235.874L880.161 237.342Z" fill="#E98862"/>
<path d="M874.885 222.814C874.885 222.814 879.959 182.472 868.694 177.608C861.197 174.37 840.019 181.885 823.122 174.843C815.731 171.761 808.057 172.223 806.591 175.802C806.011 177.219 805.341 155.01 820.498 141.364C832.566 130.499 864.62 133.301 878.068 140.43C915.305 160.168 887.453 210.355 887.453 210.355L883.031 223.713L874.885 222.814Z" fill="#0C0C0C"/>
<g opacity="0.52">
<path d="M822.657 225.7L822.606 225.692C820.087 225.148 815.923 223.945 816.316 222.012C816.645 220.408 824.452 204.011 825.343 202.147C825.419 201.986 825.554 201.864 825.719 201.806C825.883 201.748 826.063 201.76 826.219 201.839C826.375 201.917 826.495 202.056 826.551 202.225C826.607 202.394 826.596 202.579 826.519 202.74C823.055 210 817.822 221.198 817.598 222.288C817.753 222.802 820.267 223.81 822.873 224.372C823.037 224.41 823.181 224.511 823.274 224.654C823.368 224.797 823.405 224.972 823.377 225.142C823.349 225.312 823.259 225.464 823.125 225.568C822.991 225.672 822.823 225.719 822.657 225.7Z" fill="#0C0C0C"/>
</g>
<path d="M822.076 184.712C819.602 183.428 816.836 182.854 814.072 183.05C812.713 183.138 811.375 183.435 810.102 183.931C808.843 184.415 807.648 185.062 806.546 185.854C806.362 185.975 806.231 186.165 806.182 186.384C806.133 186.603 806.17 186.832 806.285 187.024C806.399 187.215 806.582 187.352 806.794 187.406C807.006 187.459 807.23 187.425 807.418 187.31L807.476 187.276C808.486 186.632 809.571 186.121 810.706 185.756C811.824 185.388 812.99 185.197 814.164 185.189C816.484 185.154 818.771 185.75 820.795 186.917L820.871 186.963C821.013 187.05 821.17 187.107 821.333 187.131C821.496 187.155 821.663 187.146 821.822 187.104C821.982 187.061 822.132 186.987 822.264 186.885C822.396 186.783 822.506 186.655 822.59 186.509C822.673 186.363 822.728 186.201 822.75 186.033C822.773 185.865 822.762 185.694 822.72 185.53C822.678 185.367 822.605 185.213 822.505 185.078C822.405 184.943 822.28 184.83 822.137 184.746L822.076 184.712Z" fill="#0C0C0C"/>
<path d="M840.578 189.852C842.826 189.26 845.186 189.288 847.42 189.934C848.551 190.252 849.63 190.744 850.618 191.394C851.623 192.047 852.544 192.828 853.359 193.717L853.404 193.763C853.559 193.917 853.764 194.003 853.979 194.005C854.194 194.006 854.401 193.922 854.556 193.77C854.712 193.619 854.805 193.411 854.816 193.191C854.826 192.97 854.754 192.754 854.613 192.588C853.747 191.531 852.754 190.591 851.658 189.79C850.551 188.975 849.332 188.335 848.041 187.891C845.419 186.97 842.604 186.793 839.891 187.377C839.731 187.413 839.579 187.481 839.444 187.577C839.309 187.674 839.194 187.797 839.105 187.939C838.926 188.226 838.865 188.574 838.936 188.907C839.006 189.24 839.203 189.531 839.482 189.715C839.761 189.899 840.1 189.962 840.424 189.889L840.488 189.873L840.578 189.852Z" fill="#0C0C0C"/>
<path d="M818.697 231.924C825.985 233.795 833.673 233.117 840.544 229.996C840.782 229.889 841.045 229.854 841.302 229.896C841.558 229.937 841.798 230.052 841.994 230.228C842.189 230.404 842.332 230.633 842.405 230.89C842.478 231.146 842.479 231.418 842.407 231.675C841.129 236.064 837.529 243.903 828.203 243.253C822.182 242.836 818.723 237.383 817.107 233.885C816.996 233.643 816.954 233.372 816.986 233.106C817.019 232.84 817.125 232.589 817.293 232.382C817.46 232.176 817.681 232.023 817.93 231.942C818.178 231.861 818.445 231.854 818.697 231.924Z" fill="white"/>
<path d="M847.618 147.112C851.1 138.709 849.421 129.925 843.867 127.493C838.313 125.061 830.987 129.902 827.505 138.305C824.022 146.708 825.701 155.491 831.255 157.923C836.809 160.355 844.135 155.515 847.618 147.112Z" fill="#0C0C0C"/>
<path d="M856.017 321.636C890.096 319.985 891.531 290.252 891.531 290.252C891.531 290.252 908.417 291.374 919.642 292.935C938.02 295.491 950.143 301.896 959.791 311.813C968.767 321.039 974.23 331.021 968.448 394.746C964.261 440.888 967.208 542.381 967.208 542.381H759.533C759.533 542.381 745.032 395.756 743.312 374.985C740.03 335.333 730.762 326.58 749.542 306.155C763.162 291.342 798.324 290.252 812.478 290.255C812.707 290.255 809.608 323.886 856.017 321.636Z" fill="#367CFF"/>
<path d="M742.821 315.338L689.128 432.344L583.241 350.495L541.184 407.982L681.394 516.361C682.649 517.32 683.96 518.198 685.319 518.992C689.325 521.299 693.734 522.773 698.295 523.328C702.855 523.884 707.477 523.511 711.897 522.23C716.317 520.95 720.448 518.787 724.055 515.865C727.662 512.944 730.673 509.32 732.918 505.202L733.526 504.09L815.443 353.794L742.821 315.338Z" fill="#367CFF"/>
<path d="M975.176 543.408H29.435C29.1699 543.408 28.9156 543.3 28.7281 543.107C28.5407 542.914 28.4353 542.653 28.4353 542.38C28.4353 542.108 28.5407 541.847 28.7281 541.654C28.9156 541.461 29.1699 541.353 29.435 541.353H975.176C975.441 541.353 975.696 541.461 975.883 541.654C976.071 541.847 976.176 542.108 976.176 542.38C976.176 542.653 976.071 542.914 975.883 543.107C975.696 543.3 975.441 543.408 975.176 543.408Z" fill="#292A2E"/>
<path d="M769.471 389.545H263.035V567.483H769.471V389.545Z" fill="white"/>
<path d="M769.97 567.998H262.535V389.031H769.97V567.998ZM263.534 566.97H768.97V390.058H263.534V566.97Z" fill="#0C0C0C"/>
<path d="M238.028 443.926L269.289 429.574C269.976 429.259 270.72 429.094 271.472 429.09C272.224 429.087 272.969 429.244 273.659 429.552C274.349 429.861 274.969 430.313 275.479 430.881C275.99 431.449 276.379 432.121 276.624 432.852C277.034 434.216 276.937 435.689 276.351 436.984C275.765 438.279 274.732 439.304 273.452 439.861L266.748 442.943L292.15 443.213C294.975 443.191 298.454 445.023 298.268 448.281C298.276 449.54 297.869 450.765 297.113 451.755C296.357 452.745 295.297 453.443 294.105 453.734C294.112 453.762 294.116 453.79 294.117 453.818C294.114 453.839 294.11 453.86 294.104 453.88L298.461 453.848C299.267 453.843 300.064 454.023 300.794 454.374C301.525 454.725 302.169 455.24 302.682 455.879C303.194 456.519 303.562 457.268 303.757 458.072C303.952 458.876 303.971 459.715 303.811 460.527C303.533 461.802 302.838 462.94 301.841 463.751C300.845 464.562 299.608 464.996 298.337 464.982L296.484 464.995C296.459 465.05 296.425 465.101 296.384 465.144C297.638 465.434 298.751 466.172 299.524 467.228C300.297 468.284 300.679 469.588 300.603 470.906C300.479 472.348 299.831 473.688 298.788 474.659C297.745 475.631 296.383 476.162 294.976 476.147L290.372 476.181C290.436 476.227 290.49 476.289 290.527 476.36C290.565 476.431 290.585 476.511 290.588 476.592C290.584 476.689 290.552 476.783 290.498 476.862C291.545 477.439 292.379 478.353 292.872 479.465C293.364 480.577 293.488 481.824 293.224 483.015C292.921 484.259 292.219 485.363 291.23 486.146C290.242 486.929 289.026 487.346 287.778 487.331L248.932 487.615C243.498 487.655 238.176 486.026 233.649 482.937C229.121 479.848 225.594 475.439 223.52 470.277C221.731 465.825 221.702 460.832 223.438 456.358C225.174 451.884 228.538 448.282 232.816 446.318L238.028 443.926Z" fill="#E98862"/>
<g opacity="0.2">
<path d="M268.96 453.592C268.962 453.727 269.016 453.855 269.109 453.95C269.203 454.045 269.329 454.098 269.46 454.098L293.618 454.321C293.75 454.322 293.878 454.269 293.972 454.174C294.067 454.078 294.121 453.948 294.122 453.812C294.123 453.676 294.072 453.545 293.979 453.447C293.886 453.35 293.759 453.295 293.627 453.294L269.469 453.07C269.337 453.07 269.21 453.124 269.116 453.22C269.022 453.316 268.969 453.447 268.969 453.583L268.96 453.592Z" fill="#0C0C0C"/>
</g>
<g opacity="0.2">
<path d="M268.571 464.544C268.572 464.679 268.626 464.808 268.719 464.903C268.813 464.998 268.939 465.051 269.07 465.051L296.03 465.3C296.162 465.3 296.289 465.246 296.383 465.15C296.477 465.053 296.529 464.923 296.529 464.787C296.525 464.652 296.471 464.524 296.378 464.428C296.285 464.333 296.161 464.277 296.03 464.273L269.07 464.023C269.004 464.022 268.939 464.035 268.878 464.061C268.816 464.086 268.761 464.124 268.714 464.172C268.667 464.22 268.63 464.276 268.604 464.339C268.579 464.402 268.566 464.469 268.566 464.537L268.571 464.544Z" fill="#0C0C0C"/>
</g>
<g opacity="0.2">
<path d="M268.082 476.396C268.084 476.531 268.137 476.659 268.231 476.754C268.324 476.849 268.45 476.902 268.582 476.902L290.087 477.102C290.219 477.103 290.347 477.05 290.442 476.954C290.536 476.859 290.59 476.729 290.591 476.592C290.592 476.456 290.541 476.325 290.448 476.228C290.355 476.131 290.228 476.075 290.096 476.074L268.591 475.875C268.458 475.875 268.331 475.929 268.237 476.025C268.143 476.121 268.091 476.252 268.091 476.388L268.082 476.396Z" fill="#0C0C0C"/>
</g>
<path d="M246.975 501.142L73.651 541.642C67.8931 542.286 62.0683 541.55 56.6336 539.491C51.1989 537.433 46.3022 534.108 42.3277 529.777C38.3531 525.447 35.4089 520.228 33.7259 514.532C32.043 508.835 31.6671 502.815 32.6278 496.944L52.4626 332.95C54.1122 322.872 59.589 313.881 67.6881 307.954C75.7872 302.027 85.8452 299.649 95.6495 301.345C105.454 303.041 114.201 308.67 119.968 316.995C125.734 325.32 128.047 335.659 126.397 345.737L116.845 463.117L237.266 435.104L246.975 501.142Z" fill="#367CFF"/>
<path d="M92.4772 467.729C92.3517 467.728 92.2312 467.679 92.1396 467.591C92.048 467.502 91.992 467.382 91.9828 467.253C91.9737 467.125 92.0119 466.997 92.09 466.896C92.168 466.795 92.2802 466.728 92.4042 466.708L116.557 461.407C116.621 461.396 116.688 461.399 116.752 461.415C116.816 461.431 116.876 461.459 116.929 461.5C116.982 461.54 117.026 461.591 117.06 461.649C117.094 461.707 117.115 461.772 117.124 461.839C117.144 461.973 117.111 462.11 117.032 462.22C116.953 462.329 116.835 462.402 116.704 462.422L92.5522 467.723C92.5274 467.727 92.5023 467.729 92.4772 467.729Z" fill="#0C0C0C"/>
<path d="M78.8511 542.38C78.7186 542.389 78.588 542.344 78.4882 542.254C78.3884 542.164 78.3274 542.036 78.3188 541.9C78.3102 541.764 78.3546 541.63 78.4422 541.527C78.5299 541.424 78.6536 541.362 78.7861 541.353L245.888 500.898L236.419 435.855L116.717 462.417C116.64 462.427 116.561 462.418 116.488 462.392C116.414 462.366 116.347 462.322 116.293 462.265C116.238 462.207 116.198 462.137 116.174 462.06C116.151 461.983 116.146 461.902 116.159 461.822L122.873 394.755C122.883 394.688 122.906 394.624 122.941 394.566C122.975 394.509 123.021 394.459 123.075 394.42C123.128 394.38 123.189 394.352 123.253 394.338C123.318 394.323 123.384 394.322 123.449 394.334C123.58 394.357 123.696 394.432 123.773 394.543C123.85 394.654 123.881 394.791 123.859 394.926L117.261 461.304L236.652 434.722C236.716 434.704 236.784 434.699 236.85 434.708C236.916 434.717 236.979 434.739 237.037 434.773C237.094 434.808 237.145 434.854 237.185 434.909C237.225 434.964 237.254 435.027 237.27 435.093L246.979 501.135C247.01 501.265 246.99 501.402 246.924 501.517C246.859 501.632 246.752 501.716 246.627 501.752L78.9161 542.376C78.8945 542.379 78.8728 542.381 78.8511 542.38Z" fill="#0C0C0C"/>
<path d="M785.081 474.752L753.819 460.4C753.132 460.085 752.389 459.92 751.637 459.916C750.885 459.913 750.14 460.07 749.45 460.378C748.76 460.687 748.14 461.139 747.63 461.707C747.12 462.275 746.73 462.946 746.486 463.678C746.075 465.042 746.173 466.515 746.759 467.81C747.345 469.105 748.378 470.13 749.658 470.687L756.361 473.769L730.959 474.038C728.135 474.017 724.655 475.849 724.842 479.107C724.834 480.366 725.241 481.591 725.997 482.581C726.753 483.571 727.813 484.269 729.004 484.56C728.997 484.587 728.993 484.615 728.991 484.644C728.994 484.665 728.999 484.686 729.004 484.706L724.649 484.674C723.843 484.669 723.045 484.848 722.315 485.2C721.585 485.551 720.94 486.065 720.427 486.705C719.915 487.345 719.547 488.094 719.352 488.898C719.157 489.702 719.138 490.541 719.298 491.353C719.576 492.628 720.271 493.766 721.268 494.577C722.264 495.387 723.501 495.822 724.772 495.808L726.626 495.821C726.651 495.876 726.685 495.927 726.726 495.97C725.472 496.26 724.359 496.998 723.586 498.054C722.813 499.11 722.43 500.413 722.507 501.732C722.631 503.174 723.279 504.514 724.323 505.485C725.366 506.457 726.727 506.988 728.135 506.973L732.739 507.007C732.674 507.053 732.621 507.114 732.583 507.186C732.545 507.257 732.525 507.337 732.523 507.418C732.526 507.515 732.557 507.609 732.612 507.688C731.565 508.265 730.731 509.179 730.238 510.291C729.746 511.403 729.622 512.65 729.886 513.841C730.189 515.085 730.891 516.189 731.88 516.972C732.868 517.755 734.085 518.173 735.333 518.156L774.179 518.441C779.613 518.481 784.935 516.851 789.463 513.762C793.99 510.672 797.517 506.263 799.591 501.099C801.379 496.648 801.409 491.654 799.673 487.181C797.937 482.707 794.572 479.105 790.294 477.141L785.081 474.752Z" fill="#E98862"/>
<g opacity="0.2">
<path d="M754.148 484.417C754.146 484.552 754.093 484.681 753.999 484.776C753.906 484.871 753.78 484.924 753.648 484.924L729.491 485.147C729.426 485.148 729.36 485.135 729.3 485.11C729.239 485.084 729.183 485.047 729.136 485C729.09 484.953 729.052 484.896 729.027 484.834C729.001 484.772 728.987 484.705 728.987 484.638C728.986 484.57 728.999 484.503 729.023 484.441C729.048 484.378 729.084 484.321 729.13 484.273C729.176 484.225 729.231 484.187 729.291 484.16C729.352 484.134 729.417 484.12 729.482 484.119L753.639 483.896C753.772 483.896 753.899 483.95 753.993 484.046C754.087 484.142 754.139 484.273 754.139 484.409L754.148 484.417Z" fill="#0C0C0C"/>
</g>
<g opacity="0.2">
<path d="M754.538 495.37C754.536 495.504 754.484 495.632 754.391 495.727C754.299 495.821 754.174 495.875 754.043 495.877L727.083 496.126C726.951 496.126 726.823 496.072 726.73 495.976C726.636 495.879 726.583 495.749 726.583 495.612C726.587 495.478 726.642 495.349 726.734 495.254C726.827 495.159 726.952 495.103 727.083 495.099L754.042 494.849C754.175 494.849 754.302 494.903 754.396 494.999C754.49 495.096 754.542 495.227 754.542 495.363L754.538 495.37Z" fill="#0C0C0C"/>
</g>
<g opacity="0.2">
<path d="M755.028 507.222C755.026 507.357 754.973 507.485 754.879 507.58C754.786 507.675 754.659 507.728 754.528 507.728L733.023 507.927C732.957 507.928 732.892 507.915 732.831 507.89C732.77 507.865 732.715 507.827 732.668 507.78C732.621 507.733 732.584 507.677 732.558 507.615C732.533 507.552 732.519 507.486 732.519 507.418C732.518 507.351 732.53 507.284 732.555 507.221C732.58 507.159 732.616 507.102 732.662 507.054C732.708 507.006 732.763 506.967 732.823 506.941C732.883 506.914 732.948 506.901 733.014 506.9L754.519 506.701C754.652 506.701 754.779 506.755 754.873 506.851C754.966 506.947 755.019 507.078 755.019 507.214L755.028 507.222Z" fill="#0C0C0C"/>
</g>
<path d="M786.13 531.968L949.458 541.642C955.216 542.286 961.04 541.55 966.475 539.491C971.91 537.433 976.807 534.108 980.781 529.777C984.756 525.447 987.7 520.229 989.383 514.532C991.066 508.835 991.442 502.815 990.481 496.944L970.65 332.945C969.833 327.955 968.068 323.179 965.456 318.89C962.844 314.602 959.435 310.884 955.425 307.949C951.414 305.014 946.881 302.92 942.083 301.786C937.286 300.652 932.318 300.5 927.463 301.34C922.609 302.18 917.962 303.994 913.79 306.679C909.617 309.364 906 312.868 903.145 316.99C900.29 321.112 898.253 325.772 897.15 330.704C896.046 335.635 895.899 340.742 896.716 345.732L906.267 470.304L786.846 465.925L786.13 531.968Z" fill="#367CFF"/>
<path d="M930.631 469.784C930.757 469.784 930.878 469.734 930.969 469.646C931.061 469.558 931.117 469.438 931.127 469.309C931.136 469.18 931.098 469.052 931.02 468.951C930.942 468.85 930.83 468.783 930.705 468.763L906.553 468.6C906.488 468.589 906.422 468.591 906.358 468.607C906.294 468.623 906.233 468.652 906.18 468.692C906.127 468.732 906.083 468.783 906.049 468.841C906.015 468.9 905.993 468.964 905.984 469.031C905.965 469.166 905.998 469.303 906.077 469.413C906.156 469.522 906.274 469.595 906.405 469.615L930.557 469.778C930.582 469.782 930.607 469.784 930.631 469.784Z" fill="#0C0C0C"/>
<path d="M944.26 542.381C944.392 542.389 944.523 542.344 944.622 542.253C944.722 542.163 944.783 542.036 944.791 541.9C944.8 541.763 944.755 541.629 944.668 541.527C944.58 541.424 944.456 541.362 944.324 541.353L787.216 531.728L787.687 466.686L906.389 469.614C906.467 469.624 906.545 469.615 906.619 469.589C906.693 469.563 906.76 469.519 906.814 469.462C906.869 469.404 906.909 469.334 906.933 469.257C906.956 469.18 906.961 469.098 906.948 469.019L900.235 394.759C900.224 394.693 900.201 394.628 900.167 394.571C900.132 394.513 900.087 394.463 900.033 394.424C899.979 394.385 899.919 394.357 899.854 394.342C899.79 394.328 899.724 394.326 899.659 394.338C899.594 394.349 899.532 394.373 899.476 394.409C899.42 394.445 899.372 394.492 899.334 394.547C899.296 394.602 899.269 394.664 899.254 394.729C899.239 394.795 899.237 394.863 899.248 394.93L905.851 468.501L787.459 465.552C787.395 465.534 787.328 465.529 787.262 465.538C787.196 465.547 787.132 465.569 787.074 465.604C787.017 465.638 786.967 465.685 786.927 465.739C786.887 465.794 786.858 465.857 786.841 465.923L786.128 531.966C786.097 532.095 786.117 532.232 786.183 532.347C786.249 532.462 786.355 532.547 786.481 532.582L944.191 542.37C944.213 542.375 944.236 542.379 944.26 542.381Z" fill="#0C0C0C"/>
<path d="M340.132 461.094L331.972 433.542L323.908 461.094H320.74L313.732 432.054C313.508 431.126 313.332 430.566 313.204 430.374C313.076 430.182 312.756 430.054 312.244 429.99L309.796 429.75V428.454H320.98V429.75L318.532 429.99C318.02 430.054 317.732 430.182 317.668 430.374C317.636 430.534 317.732 431.094 317.956 432.054L323.668 456.054L331.684 428.454H334.66L342.772 455.862L348.532 432.054C348.788 431.094 348.868 430.534 348.772 430.374C348.708 430.182 348.436 430.054 347.956 429.99L345.46 429.75V428.454H354.196V429.75L351.748 429.99C351.268 430.054 350.964 430.182 350.836 430.374C350.708 430.534 350.516 431.094 350.26 432.054L343.252 461.094H340.132ZM378.143 453.27H379.391V461.094H356.399V459.846L359.039 459.558C359.551 459.494 359.855 459.366 359.951 459.174C360.047 458.982 360.095 458.326 360.095 457.206V432.342C360.095 431.222 360.047 430.566 359.951 430.374C359.855 430.182 359.551 430.054 359.039 429.99L356.399 429.75V428.454H378.767V436.278H377.567L376.175 431.238C376.079 430.854 375.967 430.582 375.839 430.422C375.743 430.23 375.535 430.118 375.215 430.086C374.895 430.022 374.351 429.99 373.583 429.99H364.271V443.862H370.703C371.471 443.862 372.015 443.846 372.335 443.814C372.655 443.75 372.863 443.638 372.959 443.478C373.087 443.286 373.199 442.998 373.295 442.614L374.207 439.014H375.455V450.246H374.207L373.295 446.646C373.199 446.262 373.087 445.99 372.959 445.83C372.863 445.638 372.655 445.526 372.335 445.494C372.015 445.43 371.471 445.398 370.703 445.398H364.271V459.558H374.159C374.927 459.558 375.471 459.542 375.791 459.51C376.111 459.446 376.319 459.334 376.415 459.174C376.543 458.982 376.655 458.694 376.751 458.31L378.143 453.27ZM404.787 453.174H406.083V461.094H384.243V459.846L386.883 459.558C387.395 459.494 387.699 459.366 387.795 459.174C387.891 458.982 387.939 458.326 387.939 457.206V432.342C387.939 431.222 387.891 430.566 387.795 430.374C387.699 430.182 387.395 430.054 386.883 429.99L384.243 429.75V428.454H395.811V429.75L393.171 429.99C392.659 430.054 392.355 430.182 392.259 430.374C392.163 430.566 392.115 431.222 392.115 432.342V459.558H400.803C401.571 459.558 402.115 459.542 402.435 459.51C402.755 459.446 402.963 459.334 403.059 459.174C403.187 458.982 403.299 458.694 403.395 458.31L404.787 453.174ZM422.674 461.574C418.61 461.574 415.506 460.214 413.362 457.494C411.25 454.774 410.194 451.126 410.194 446.55V442.95C410.194 439.942 410.642 437.318 411.538 435.078C412.466 432.838 413.826 431.094 415.618 429.846C417.41 428.598 419.602 427.974 422.194 427.974C424.594 427.974 426.578 428.454 428.146 429.414C429.714 430.342 430.85 431.574 431.554 433.11C432.258 434.614 432.482 436.262 432.226 438.054L428.098 439.062C428.45 435.99 428.098 433.638 427.042 432.006C425.986 430.342 424.37 429.51 422.194 429.51C419.762 429.51 417.906 430.374 416.626 432.102C415.378 433.83 414.754 436.646 414.754 440.55V448.95C414.754 452.886 415.426 455.718 416.77 457.446C418.114 459.174 420.114 460.038 422.77 460.038C423.826 460.038 424.834 459.862 425.794 459.51C426.754 459.126 427.57 458.486 428.242 457.59C428.914 456.694 429.33 455.446 429.49 453.846L432.466 454.614C431.762 457.174 430.514 458.982 428.722 460.038C426.962 461.062 424.946 461.574 422.674 461.574ZM463.183 442.95V446.55C463.183 451.222 462.111 454.902 459.967 457.59C457.823 460.246 454.751 461.574 450.751 461.574C446.719 461.574 443.631 460.246 441.487 457.59C439.375 454.902 438.319 451.222 438.319 446.55V442.95C438.319 438.31 439.375 434.662 441.487 432.006C443.631 429.318 446.719 427.974 450.751 427.974C454.751 427.974 457.823 429.318 459.967 432.006C462.111 434.662 463.183 438.31 463.183 442.95ZM458.623 440.55C458.623 436.55 457.951 433.718 456.607 432.054C455.295 430.358 453.343 429.51 450.751 429.51C448.159 429.51 446.191 430.358 444.847 432.054C443.535 433.718 442.879 436.55 442.879 440.55V448.95C442.879 452.95 443.535 455.798 444.847 457.494C446.191 459.19 448.159 460.038 450.751 460.038C453.343 460.038 455.295 459.19 456.607 457.494C457.951 455.798 458.623 452.95 458.623 448.95V440.55ZM505.664 459.846V461.094H494.096V459.846L496.736 459.558C497.248 459.494 497.552 459.366 497.648 459.174C497.744 458.95 497.792 458.294 497.792 457.206V431.19L487.808 457.254H484.544L474.512 431.19V457.206C474.512 458.294 474.56 458.95 474.656 459.174C474.752 459.366 475.056 459.494 475.568 459.558L478.208 459.846V461.094H469.04V459.846L471.68 459.558C472.192 459.494 472.496 459.366 472.592 459.174C472.688 458.95 472.736 458.294 472.736 457.206V432.342C472.736 431.254 472.688 430.614 472.592 430.422C472.496 430.198 472.192 430.054 471.68 429.99L469.04 429.75V428.454H477.824L487.472 453.654L497.12 428.454H505.664V429.75L503.024 429.99C502.512 430.054 502.208 430.198 502.112 430.422C502.016 430.614 501.968 431.254 501.968 432.342V457.206C501.968 458.294 502.016 458.95 502.112 459.174C502.208 459.366 502.512 459.494 503.024 459.558L505.664 459.846ZM532.08 453.27H533.328V461.094H510.336V459.846L512.976 459.558C513.488 459.494 513.792 459.366 513.888 459.174C513.984 458.982 514.032 458.326 514.032 457.206V432.342C514.032 431.222 513.984 430.566 513.888 430.374C513.792 430.182 513.488 430.054 512.976 429.99L510.336 429.75V428.454H532.704V436.278H531.504L530.112 431.238C530.016 430.854 529.904 430.582 529.776 430.422C529.68 430.23 529.472 430.118 529.152 430.086C528.832 430.022 528.288 429.99 527.52 429.99H518.208V443.862H524.64C525.408 443.862 525.952 443.846 526.272 443.814C526.592 443.75 526.8 443.638 526.896 443.478C527.024 443.286 527.136 442.998 527.232 442.614L528.144 439.014H529.392V450.246H528.144L527.232 446.646C527.136 446.262 527.024 445.99 526.896 445.83C526.8 445.638 526.592 445.526 526.272 445.494C525.952 445.43 525.408 445.398 524.64 445.398H518.208V459.558H528.096C528.864 459.558 529.408 459.542 529.728 459.51C530.048 459.446 530.256 459.334 530.352 459.174C530.48 458.982 530.592 458.694 530.688 458.31L532.08 453.27ZM547.375 428.454H572.911V436.278H571.663L570.271 431.238C570.175 430.854 570.063 430.582 569.935 430.422C569.839 430.23 569.631 430.118 569.311 430.086C568.991 430.022 568.447 429.99 567.679 429.99H562.255V457.206C562.255 458.326 562.303 458.982 562.399 459.174C562.495 459.366 562.799 459.494 563.311 459.558L565.951 459.846V461.094H554.383V459.846L557.023 459.558C557.535 459.494 557.839 459.366 557.935 459.174C558.031 458.982 558.079 458.326 558.079 457.206V429.99H552.607C551.871 429.99 551.327 430.022 550.975 430.086C550.655 430.118 550.431 430.23 550.303 430.422C550.207 430.582 550.111 430.854 550.015 431.238L548.623 436.278H547.375V428.454ZM601.98 442.95V446.55C601.98 451.222 600.908 454.902 598.764 457.59C596.62 460.246 593.548 461.574 589.548 461.574C585.516 461.574 582.428 460.246 580.284 457.59C578.172 454.902 577.116 451.222 577.116 446.55V442.95C577.116 438.31 578.172 434.662 580.284 432.006C582.428 429.318 585.516 427.974 589.548 427.974C593.548 427.974 596.62 429.318 598.764 432.006C600.908 434.662 601.98 438.31 601.98 442.95ZM597.42 440.55C597.42 436.55 596.748 433.718 595.404 432.054C594.092 430.358 592.14 429.51 589.548 429.51C586.956 429.51 584.988 430.358 583.644 432.054C582.332 433.718 581.676 436.55 581.676 440.55V448.95C581.676 452.95 582.332 455.798 583.644 457.494C584.988 459.19 586.956 460.038 589.548 460.038C592.14 460.038 594.092 459.19 595.404 457.494C596.748 455.798 597.42 452.95 597.42 448.95V440.55ZM644.823 442.95V446.55C644.823 451.222 643.751 454.902 641.607 457.59C639.463 460.246 636.391 461.574 632.391 461.574C628.359 461.574 625.271 460.246 623.127 457.59C621.015 454.902 619.959 451.222 619.959 446.55V442.95C619.959 438.31 621.015 434.662 623.127 432.006C625.271 429.318 628.359 427.974 632.391 427.974C636.391 427.974 639.463 429.318 641.607 432.006C643.751 434.662 644.823 438.31 644.823 442.95ZM640.263 440.55C640.263 436.55 639.591 433.718 638.247 432.054C636.935 430.358 634.983 429.51 632.391 429.51C629.799 429.51 627.831 430.358 626.487 432.054C625.175 433.718 624.519 436.55 624.519 440.55V448.95C624.519 452.95 625.175 455.798 626.487 457.494C627.831 459.19 629.799 460.038 632.391 460.038C634.983 460.038 636.935 459.19 638.247 457.494C639.591 455.798 640.263 452.95 640.263 448.95V440.55ZM670.072 429.75V428.454H679.24V429.75L676.6 429.99C676.088 430.054 675.784 430.182 675.688 430.374C675.592 430.566 675.544 431.222 675.544 432.342V450.006C675.544 453.654 674.696 456.502 673 458.55C671.336 460.566 668.776 461.574 665.32 461.574C661.544 461.574 658.648 460.47 656.632 458.262C654.648 456.054 653.656 453.014 653.656 449.142V432.342C653.656 431.222 653.608 430.566 653.512 430.374C653.416 430.182 653.112 430.054 652.6 429.99L649.96 429.75V428.454H661.528V429.75L658.888 429.99C658.376 430.054 658.072 430.182 657.976 430.374C657.88 430.566 657.832 431.222 657.832 432.342V449.862C657.832 453.286 658.472 455.83 659.752 457.494C661.064 459.158 663.048 459.99 665.704 459.99C668.392 459.99 670.408 459.142 671.752 457.446C673.096 455.75 673.768 453.286 673.768 450.054V432.342C673.768 431.222 673.72 430.566 673.624 430.374C673.528 430.182 673.224 430.054 672.712 429.99L670.072 429.75ZM683.165 429.75V428.454H696.509C699.645 428.454 702.045 429.206 703.709 430.71C705.405 432.182 706.253 434.15 706.253 436.614V438.102C706.253 440.054 705.709 441.718 704.621 443.094C703.565 444.438 702.045 445.366 700.061 445.878L706.205 457.206C706.621 457.974 706.925 458.518 707.117 458.838C707.309 459.126 707.485 459.318 707.645 459.414C707.837 459.478 708.093 459.526 708.413 459.558L710.573 459.846V461.094H703.325L695.741 446.31H691.037V457.206C691.037 458.326 691.085 458.982 691.181 459.174C691.277 459.366 691.581 459.494 692.093 459.558L694.733 459.846V461.094H683.165V459.846L685.805 459.558C686.317 459.494 686.621 459.366 686.717 459.174C686.813 458.982 686.861 458.326 686.861 457.206V432.342C686.861 431.222 686.813 430.566 686.717 430.374C686.621 430.182 686.317 430.054 685.805 429.99L683.165 429.75ZM696.509 429.99H691.037V444.774H696.509C698.173 444.774 699.469 444.246 700.397 443.19C701.357 442.102 701.837 440.47 701.837 438.294V436.422C701.837 434.246 701.357 432.63 700.397 431.574C699.469 430.518 698.173 429.99 696.509 429.99ZM338.57 486.454H364.106V494.278H362.858L361.466 489.238C361.37 488.854 361.258 488.582 361.13 488.422C361.034 488.23 360.826 488.118 360.506 488.086C360.186 488.022 359.642 487.99 358.874 487.99H353.45V515.206C353.45 516.326 353.498 516.982 353.594 517.174C353.69 517.366 353.994 517.494 354.506 517.558L357.146 517.846V519.094H345.578V517.846L348.218 517.558C348.73 517.494 349.034 517.366 349.13 517.174C349.226 516.982 349.274 516.326 349.274 515.206V487.99H343.802C343.066 487.99 342.522 488.022 342.17 488.086C341.85 488.118 341.626 488.23 341.498 488.422C341.402 488.582 341.306 488.854 341.21 489.238L339.818 494.278H338.57V486.454ZM367.063 487.75V486.454H378.631V487.75L375.991 487.99C375.479 488.054 375.175 488.182 375.079 488.374C374.983 488.566 374.935 489.222 374.935 490.342V515.206C374.935 516.326 374.983 516.982 375.079 517.174C375.175 517.366 375.479 517.494 375.991 517.558L378.631 517.846V519.094H367.063V517.846L369.703 517.558C370.215 517.494 370.519 517.366 370.615 517.174C370.711 516.982 370.759 516.326 370.759 515.206V490.342C370.759 489.222 370.711 488.566 370.615 488.374C370.519 488.182 370.215 488.054 369.703 487.99L367.063 487.75ZM400.563 497.446H401.811V508.678H400.563L399.651 505.078C399.555 504.694 399.443 504.422 399.315 504.262C399.219 504.07 399.011 503.958 398.691 503.926C398.371 503.862 397.827 503.83 397.059 503.83H391.107V515.206C391.107 516.326 391.155 516.998 391.251 517.222C391.347 517.414 391.651 517.526 392.163 517.558L395.763 517.846V519.094H383.235V517.846L385.875 517.558C386.387 517.494 386.691 517.366 386.787 517.174C386.883 516.982 386.931 516.326 386.931 515.206V490.342C386.931 489.222 386.883 488.566 386.787 488.374C386.691 488.182 386.387 488.054 385.875 487.99L383.235 487.75V486.454H405.171V494.278H403.923L402.531 489.238C402.403 488.694 402.211 488.358 401.955 488.23C401.731 488.07 401.059 487.99 399.939 487.99H391.107V502.294H397.059C397.827 502.294 398.371 502.278 398.691 502.246C399.011 502.182 399.219 502.07 399.315 501.91C399.443 501.718 399.555 501.43 399.651 501.046L400.563 497.446ZM426.625 497.446H427.873V508.678H426.625L425.713 505.078C425.617 504.694 425.505 504.422 425.377 504.262C425.281 504.07 425.073 503.958 424.753 503.926C424.433 503.862 423.889 503.83 423.121 503.83H417.169V515.206C417.169 516.326 417.217 516.998 417.313 517.222C417.409 517.414 417.713 517.526 418.225 517.558L421.825 517.846V519.094H409.297V517.846L411.937 517.558C412.449 517.494 412.753 517.366 412.849 517.174C412.945 516.982 412.993 516.326 412.993 515.206V490.342C412.993 489.222 412.945 488.566 412.849 488.374C412.753 488.182 412.449 488.054 411.937 487.99L409.297 487.75V486.454H431.233V494.278H429.985L428.593 489.238C428.465 488.694 428.273 488.358 428.017 488.23C427.793 488.07 427.121 487.99 426.001 487.99H417.169V502.294H423.121C423.889 502.294 424.433 502.278 424.753 502.246C425.073 502.182 425.281 502.07 425.377 501.91C425.505 501.718 425.617 501.43 425.713 501.046L426.625 497.446ZM435.36 487.75V486.454H446.928V487.75L444.288 487.99C443.776 488.054 443.472 488.182 443.376 488.374C443.28 488.566 443.232 489.222 443.232 490.342V515.206C443.232 516.326 443.28 516.982 443.376 517.174C443.472 517.366 443.776 517.494 444.288 517.558L446.928 517.846V519.094H435.36V517.846L438 517.558C438.512 517.494 438.816 517.366 438.912 517.174C439.008 516.982 439.056 516.326 439.056 515.206V490.342C439.056 489.222 439.008 488.566 438.912 488.374C438.816 488.182 438.512 488.054 438 487.99L435.36 487.75ZM471.356 487.75V486.454H480.524V487.75L477.884 487.99C477.372 488.054 477.068 488.198 476.972 488.422C476.876 488.614 476.828 489.254 476.828 490.342V519.094H474.476L457.004 489.622V515.206C457.004 516.294 457.052 516.95 457.148 517.174C457.244 517.366 457.548 517.494 458.06 517.558L460.7 517.846V519.094H451.532V517.846L454.172 517.558C454.684 517.494 454.988 517.366 455.084 517.174C455.18 516.95 455.228 516.294 455.228 515.206V490.342C455.228 489.254 455.18 488.614 455.084 488.422C454.988 488.198 454.684 488.054 454.172 487.99L451.532 487.75V486.454H459.836L475.052 512.182V490.342C475.052 489.254 475.004 488.614 474.908 488.422C474.812 488.198 474.508 488.054 473.996 487.99L471.356 487.75ZM495.375 518.038C497.519 518.038 499.247 517.51 500.559 516.454C501.903 515.398 502.575 513.846 502.575 511.798C502.575 510.166 502.079 508.806 501.087 507.718C500.095 506.598 498.367 505.702 495.903 505.03L492.591 504.07C490.159 503.398 488.303 502.262 487.023 500.662C485.743 499.062 485.103 497.11 485.103 494.806C485.103 493.27 485.455 491.83 486.159 490.486C486.895 489.142 487.999 488.054 489.471 487.222C490.975 486.39 492.879 485.974 495.183 485.974C497.743 485.974 499.807 486.454 501.375 487.414C502.943 488.342 504.031 489.558 504.639 491.062C505.247 492.566 505.391 494.182 505.071 495.91L501.039 496.774C501.455 493.798 501.151 491.51 500.127 489.91C499.135 488.31 497.407 487.51 494.943 487.51C492.991 487.51 491.455 488.038 490.335 489.094C489.215 490.118 488.655 491.622 488.655 493.606C488.655 495.174 489.103 496.518 489.999 497.638C490.895 498.726 492.479 499.59 494.751 500.23L498.063 501.19C503.407 502.662 506.079 505.782 506.079 510.55C506.079 512.246 505.679 513.782 504.879 515.158C504.111 516.502 502.927 517.574 501.327 518.374C499.759 519.174 497.775 519.574 495.375 519.574C493.711 519.574 492.111 519.318 490.575 518.806C489.071 518.294 487.775 517.414 486.687 516.166C485.631 514.918 484.927 513.19 484.575 510.982L487.455 510.022C487.615 512.134 488.079 513.766 488.847 514.918C489.615 516.07 490.575 516.886 491.727 517.366C492.879 517.814 494.095 518.038 495.375 518.038ZM543.422 518.038C545.566 518.038 547.294 517.51 548.606 516.454C549.95 515.398 550.622 513.846 550.622 511.798C550.622 510.166 550.126 508.806 549.134 507.718C548.142 506.598 546.414 505.702 543.95 505.03L540.638 504.07C538.206 503.398 536.35 502.262 535.07 500.662C533.79 499.062 533.15 497.11 533.15 494.806C533.15 493.27 533.502 491.83 534.206 490.486C534.942 489.142 536.046 488.054 537.518 487.222C539.022 486.39 540.926 485.974 543.23 485.974C545.79 485.974 547.854 486.454 549.422 487.414C550.99 488.342 552.078 489.558 552.686 491.062C553.294 492.566 553.438 494.182 553.118 495.91L549.086 496.774C549.502 493.798 549.198 491.51 548.174 489.91C547.182 488.31 545.454 487.51 542.99 487.51C541.038 487.51 539.502 488.038 538.382 489.094C537.262 490.118 536.702 491.622 536.702 493.606C536.702 495.174 537.15 496.518 538.046 497.638C538.942 498.726 540.526 499.59 542.798 500.23L546.11 501.19C551.454 502.662 554.126 505.782 554.126 510.55C554.126 512.246 553.726 513.782 552.926 515.158C552.158 516.502 550.974 517.574 549.374 518.374C547.806 519.174 545.822 519.574 543.422 519.574C541.758 519.574 540.158 519.318 538.622 518.806C537.118 518.294 535.822 517.414 534.734 516.166C533.678 514.918 532.974 513.19 532.622 510.982L535.502 510.022C535.662 512.134 536.126 513.766 536.894 514.918C537.662 516.07 538.622 516.886 539.774 517.366C540.926 517.814 542.142 518.038 543.422 518.038ZM580.807 511.27H582.055V519.094H559.063V517.846L561.703 517.558C562.215 517.494 562.519 517.366 562.615 517.174C562.711 516.982 562.759 516.326 562.759 515.206V490.342C562.759 489.222 562.711 488.566 562.615 488.374C562.519 488.182 562.215 488.054 561.703 487.99L559.063 487.75V486.454H581.431V494.278H580.231L578.839 489.238C578.743 488.854 578.631 488.582 578.503 488.422C578.407 488.23 578.199 488.118 577.879 488.086C577.559 488.022 577.015 487.99 576.247 487.99H566.935V501.862H573.367C574.135 501.862 574.679 501.846 574.999 501.814C575.319 501.75 575.527 501.638 575.623 501.478C575.751 501.286 575.863 500.998 575.959 500.614L576.871 497.014H578.119V508.246H576.871L575.959 504.646C575.863 504.262 575.751 503.99 575.623 503.83C575.527 503.638 575.319 503.526 574.999 503.494C574.679 503.43 574.135 503.398 573.367 503.398H566.935V517.558H576.823C577.591 517.558 578.135 517.542 578.455 517.51C578.775 517.446 578.983 517.334 579.079 517.174C579.207 516.982 579.319 516.694 579.415 516.31L580.807 511.27ZM586.907 487.75V486.454H600.251C603.387 486.454 605.787 487.206 607.451 488.71C609.147 490.182 609.995 492.15 609.995 494.614V496.102C609.995 498.054 609.451 499.718 608.363 501.094C607.307 502.438 605.787 503.366 603.803 503.878L609.947 515.206C610.363 515.974 610.667 516.518 610.859 516.838C611.051 517.126 611.227 517.318 611.387 517.414C611.579 517.478 611.835 517.526 612.155 517.558L614.315 517.846V519.094H607.067L599.483 504.31H594.779V515.206C594.779 516.326 594.827 516.982 594.923 517.174C595.019 517.366 595.323 517.494 595.835 517.558L598.475 517.846V519.094H586.907V517.846L589.547 517.558C590.059 517.494 590.363 517.366 590.459 517.174C590.555 516.982 590.603 516.326 590.603 515.206V490.342C590.603 489.222 590.555 488.566 590.459 488.374C590.363 488.182 590.059 488.054 589.547 487.99L586.907 487.75ZM600.251 487.99H594.779V502.774H600.251C601.915 502.774 603.211 502.246 604.139 501.19C605.099 500.102 605.579 498.47 605.579 496.294V494.422C605.579 492.246 605.099 490.63 604.139 489.574C603.211 488.518 601.915 487.99 600.251 487.99ZM639.349 490.054L630.037 519.094H626.821L617.461 490.054C617.173 489.094 616.949 488.534 616.789 488.374C616.661 488.182 616.341 488.054 615.829 487.99L613.429 487.75V486.454H624.709V487.75L622.261 487.99C621.749 488.054 621.461 488.182 621.397 488.374C621.365 488.566 621.493 489.126 621.781 490.054L629.701 514.918L637.621 490.054C637.941 489.126 638.069 488.566 638.005 488.374C637.973 488.182 637.685 488.054 637.141 487.99L634.693 487.75V486.454H643.381V487.75L640.933 487.99C640.613 488.022 640.373 488.086 640.213 488.182C640.085 488.246 639.957 488.422 639.829 488.71C639.733 488.966 639.573 489.414 639.349 490.054ZM645.594 487.75V486.454H657.162V487.75L654.522 487.99C654.01 488.054 653.706 488.182 653.61 488.374C653.514 488.566 653.466 489.222 653.466 490.342V515.206C653.466 516.326 653.514 516.982 653.61 517.174C653.706 517.366 654.01 517.494 654.522 517.558L657.162 517.846V519.094H645.594V517.846L648.234 517.558C648.746 517.494 649.05 517.366 649.146 517.174C649.242 516.982 649.29 516.326 649.29 515.206V490.342C649.29 489.222 649.242 488.566 649.146 488.374C649.05 488.182 648.746 488.054 648.234 487.99L645.594 487.75ZM675.494 519.574C671.43 519.574 668.326 518.214 666.182 515.494C664.07 512.774 663.014 509.126 663.014 504.55V500.95C663.014 497.942 663.462 495.318 664.358 493.078C665.286 490.838 666.646 489.094 668.438 487.846C670.23 486.598 672.422 485.974 675.014 485.974C677.414 485.974 679.398 486.454 680.966 487.414C682.534 488.342 683.67 489.574 684.374 491.11C685.078 492.614 685.302 494.262 685.046 496.054L680.918 497.062C681.27 493.99 680.918 491.638 679.862 490.006C678.806 488.342 677.19 487.51 675.014 487.51C672.582 487.51 670.726 488.374 669.446 490.102C668.198 491.83 667.574 494.646 667.574 498.55V506.95C667.574 510.886 668.246 513.718 669.59 515.446C670.934 517.174 672.934 518.038 675.59 518.038C676.646 518.038 677.654 517.862 678.614 517.51C679.574 517.126 680.39 516.486 681.062 515.59C681.734 514.694 682.15 513.446 682.31 511.846L685.286 512.614C684.582 515.174 683.334 516.982 681.542 518.038C679.782 519.062 677.766 519.574 675.494 519.574ZM711.635 511.27H712.883V519.094H689.891V517.846L692.531 517.558C693.043 517.494 693.347 517.366 693.443 517.174C693.539 516.982 693.587 516.326 693.587 515.206V490.342C693.587 489.222 693.539 488.566 693.443 488.374C693.347 488.182 693.043 488.054 692.531 487.99L689.891 487.75V486.454H712.259V494.278H711.059L709.667 489.238C709.571 488.854 709.459 488.582 709.331 488.422C709.235 488.23 709.027 488.118 708.707 488.086C708.387 488.022 707.843 487.99 707.075 487.99H697.763V501.862H704.195C704.963 501.862 705.507 501.846 705.827 501.814C706.147 501.75 706.355 501.638 706.451 501.478C706.579 501.286 706.691 500.998 706.787 500.614L707.699 497.014H708.947V508.246H707.699L706.787 504.646C706.691 504.262 706.579 503.99 706.451 503.83C706.355 503.638 706.147 503.526 705.827 503.494C705.507 503.43 704.963 503.398 704.195 503.398H697.763V517.558H707.651C708.419 517.558 708.963 517.542 709.283 517.51C709.603 517.446 709.811 517.334 709.907 517.174C710.035 516.982 710.147 516.694 710.243 516.31L711.635 511.27Z" fill="#003DB4"/>
</svg>
